<?xml version="1.0" encoding="UTF-8"?>
<svg id="Layer_1" data-name="Layer 1" xmlns="http://www.w3.org/2000/svg" viewBox="0 0 665.94 422.05">
  <defs>
    <style>
      .cls-1 {
        fill: #00adee;
      }

      .cls-2 {
        fill: #b4e2ee;
      }

      .cls-3 {
        fill: #6d6e70;
      }

      .cls-4 {
        fill: #81cfd6;
      }
    </style>
  </defs>
  <path class="cls-1" d="m599.23,249.44L422.41,7.37c-7.02-9.82-22.45-9.82-29.47,0l-72.97,99.64,116.48,159.28c47.71-8.42,101.74-14.03,162.78-16.84h0Z"/>
  <path class="cls-2" d="m399.26,273.3L238.58,52.98c-7.02-9.82-21.75-9.82-29.47,0L65.27,249.44c109.46,4.21,197.87,19.65,267.33,38.59,21.05-4.91,42.8-10.52,66.66-14.73h0Z"/>
  <path class="cls-4" d="m665.89,294.35c.7-6.31-4.91-11.93-11.93-11.93h0c-103.85.7-188.75,11.23-258.91,25.96,110.86,39.99,157.17,86.3,160.68,89.81l23.15,23.86"/>
  <path class="cls-3" d="m0,409.42c0,7.02,5.61,11.93,11.93,11.93h519.93c0,.7-132.61-136.12-519.23-138.93h0c-7.02,0-12.63,5.61-12.63,11.93"/>
</svg>