<?xml version="1.0" encoding="UTF-8"?>
<svg id="Layer_1" data-name="Layer 1" xmlns="http://www.w3.org/2000/svg" xmlns:xlink="http://www.w3.org/1999/xlink" viewBox="0 0 1082.81 1260.28">
  <defs>
    <style>
      .cls-1 {
        fill: none;
      }

      .cls-2 {
        fill: #82d0d7;
      }

      .cls-3 {
        clip-path: url(#clippath-6);
      }
    </style>
    <symbol id="b" viewBox="0 0 12.38 19.66">
      <path d="m7.33,19.66v-4.34h5.05v-3.5h-5.05v-6.5c0-.71.14-1.19.42-1.44s.84-.38,1.67-.38h2.52V0h-4.19c-1.94,0-3.31.4-4.12,1.2-.8.81-1.2,2.18-1.2,4.11v6.5H0v3.5h2.42v4.34h4.91Z"/>
    </symbol>
    <clipPath id="clippath-6">
      <rect class="cls-1" x="382.81" y="532.28" width="700" height="700"/>
    </clipPath>
  </defs>
  <path d="m480.06,199.08L338.94,5.88c-5.6-7.84-17.92-7.84-23.52,0l-58.24,79.52,92.96,127.12c38.08-6.72,81.2-11.2,129.92-13.44h0Z"/>
  <path d="m320.46,218.12L192.22,42.28c-5.6-7.84-17.36-7.84-23.52,0L53.9,199.08c87.36,3.36,157.92,15.68,213.36,30.8,16.8-3.92,34.16-8.4,53.2-11.76h0Z"/>
  <path class="cls-2" d="m523.74,225.4c-82.88.56-150.64,8.96-206.64,20.72,88.48,31.92,125.44,68.88,128.24,71.68l18.48,19.04h59.92c5.6,0,9.52-4.48,9.52-9.52v-92.4c.56-5.04-3.92-9.52-9.52-9.52h0Z"/>
  <path d="m11.89,225.4c-5.6,0-10.08,4.48-10.08,9.52v91.84c0,5.6,4.48,9.52,9.52,9.52h414.96c0,.56-105.84-108.64-414.4-110.88h0Z"/>
  <g class="cls-3">
    <use width="12.38" height="19.66" transform="translate(383.18 532.28) scale(1 -1)" xlink:href="#b"/>
  </g>
</svg>